<?xml version="1.0" encoding="iso-8859-1"?>
<!-- Generator: Adobe Illustrator 19.0.0, SVG Export Plug-In . SVG Version: 6.00 Build 0)  -->
<svg version="1.1" id="Capa_1" xmlns="http://www.w3.org/2000/svg" xmlns:xlink="http://www.w3.org/1999/xlink" x="0px" y="0px"
	 viewBox="0 0 384.97 384.97" style="enable-background:new 0 0 384.97 384.97;" xml:space="preserve">
<g>
	<g id="Arrow_Right_Circle">
		<path fill="#f9600a" d="M192.485,0C86.173,0,0,86.173,0,192.485c0,106.3,86.173,192.485,192.485,192.485c106.3,0,192.485-86.185,192.485-192.485
			C384.97,86.173,298.785,0,192.485,0z M192.485,360.909c-93.018,0-168.424-75.406-168.424-168.424S99.467,24.061,192.485,24.061
			s168.424,75.406,168.424,168.424S285.503,360.909,192.485,360.909z"/>
		<path fill="#f9600a" d="M309.263,183.895l-82.997-84.2c-4.704-4.752-12.319-4.74-17.011,0c-4.704,4.752-4.704,12.439,0,17.191l62.558,63.46
			H84.212c-6.641,0-12.03,5.438-12.03,12.151c0,6.713,5.39,12.151,12.03,12.151h187.589l-62.558,63.46
			c-4.692,4.74-4.692,12.439,0,17.179c4.704,4.74,12.319,4.74,17.011,0l82.997-84.2c2.25-2.262,3.537-5.426,3.537-8.602
			C312.788,189.321,311.489,186.157,309.263,183.895z"/>
	</g>
	<g>
	</g>
	<g>
	</g>
	<g>
	</g>
	<g>
	</g>
	<g>
	</g>
	<g>
	</g>
</g>
<g>
</g>
<g>
</g>
<g>
</g>
<g>
</g>
<g>
</g>
<g>
</g>
<g>
</g>
<g>
</g>
<g>
</g>
<g>
</g>
<g>
</g>
<g>
</g>
<g>
</g>
<g>
</g>
<g>
</g>
</svg>
